/* XPM */
static char * bottom_inactive_xpm[] = {
"10 3 2 1",
".	c #50A5FF s active_color_1",
"+	c #EEEEEE s inactive_color_1",
"++++++++++",
"++++++++++",
".........."};
