/* XPM */
static char * bottom_left_inactive_xpm[] = {
"12 12 3 1",
" 	c None",
".	c #50A5FF s active_color_1",
"+	c #EEEEEE s inactive_color_1",
".+++        ",
".+++        ",
".+++        ",
".+++        ",
".+++        ",
".+++        ",
".+++        ",
".+++        ",
".+++++++++++",
".+++++++++++",
".+++++++++++",
"............"};
