/* XPM */
static char * bottom_right_inactive_xpm[] = {
"10 10 3 1",
" 	c None",
".	c #50A5FF s active_color_1",
"+	c #EEEEEE s inactive_color_1",
"       ++.",
"       ++.",
"       ++.",
"       ++.",
"       ++.",
"       ++.",
"       ++.",
"+++++++++.",
"+++++++++.",
".........."};
