/* XPM */
static char * close_active_xpm[] = {
"33 20 3 1",
" 	c None",
".	c #333333 s active_text_color",
"+	c #FF1E00",
".+++++++++++++++++++++++++++++++.",
".+++++++++++++++++++++++++++++++.",
".+++++++++++++++++++++++++++++++.",
".+++++++++++++++++++++++++++++++.",
".+++++++++++++++++++++++++++++++.",
".+++++++++++...+++...+++++++++++.",
".++++++++++++...+...++++++++++++.",
".++++++++++++++...++++++++++++++.",
".+++++++++++++.....+++++++++++++.",
".++++++++++++...+...++++++++++++.",
".+++++++++++...+++...+++++++++++.",
".+++++++++++++++++++++++++++++++.",
".+++++++++++++++++++++++++++++++.",
".+++++++++++++++++++++++++++++++.",
".+++++++++++++++++++++++++++++++.",
" ............................... ",
"                                 ",
"                                 ",
"                                 ",
"                                 "};
