/* XPM */
static char * left_inactive_xpm[] = {
"3 10 2 1",
".	c #50A5FF s active_color_1",
"+	c #EEEEEE s inactive_color_1",
".++",
".++",
".++",
".++",
".++",
".++",
".++",
".++",
".++",
".++"};
