/* XPM */
static char * maximize_inactive_xpm[] = {
"25 20 4 1",
" 	c None",
".	c #EEEEEE s inactive_color_1",
"+	c #999999 s inactive_text_color",
"*	c #50A5FF s active_color_1",
"*************************",
"+.......................+",
"+.......................+",
"+.......................+",
"+.......................+",
"+.......+++++++++.......+",
"+.......+++++++++.......+",
"+.......+.......+.......+",
"+.......+.......+.......+",
"+.......+.......+.......+",
"+.......+++++++++.......+",
"+.......................+",
"+.......................+",
"+.......................+",
"+.......................+",
" +++++++++++++++++++++++ ",
"                         ",
"                         ",
"                         ",
"                         "};
