/* XPM */
static char * maximize_prelight_xpm[] = {
"25 20 3 1",
" 	c None",
".	c #B7D4F1 s active_hilight_1",
"+	c #333333 s active_text_color",
"+.......................+",
"+.......................+",
"+.......................+",
"+.......................+",
"+.......................+",
"+.......+++++++++.......+",
"+.......+++++++++.......+",
"+.......+.......+.......+",
"+.......+.......+.......+",
"+.......+.......+.......+",
"+.......+++++++++.......+",
"+.......................+",
"+.......................+",
"+.......................+",
"+.......................+",
" +++++++++++++++++++++++ ",
"                         ",
"                         ",
"                         ",
"                         "};


