/* XPM */
static char * title_2_inactive_xpm[] = {
"5 20 3 1",
" 	c None",
".	c #50A5FF s active_color_1",
"+	c #EEEEEE s inactive_color_1",
".....",
"+++++",
"+++++",
"+++++",
"+++++",
"+++++",
"+++++",
"+++++",
"+++++",
"+++++",
"+++++",
"+++++",
"+++++",
"+++++",
"+++++",
"+++++",
"+++++",
"+++++",
"+++++",
"+++++"};
